<svg xmlns="http://www.w3.org/2000/svg" width="150" height="150" viewBox="0 0 150 150"><rect width="150" height="150" fill="none"/><g transform="translate(14.977 14.981)"><path d="M187.388,9.634l-4.177-3.7a23.559,23.559,0,0,0-33.251,2L138.006,21.425a7.393,7.393,0,0,0,.625,10.42l1.122,1a7.379,7.379,0,0,0,10.424-.626l11.954-13.487a7.307,7.307,0,0,1,10.293-.62l4.172,3.7a7.3,7.3,0,0,1,.621,10.292L151.077,61.59a7.28,7.28,0,0,1-8.8,1.639,7.977,7.977,0,0,0-9.638,1.8l-.2.23a7.984,7.984,0,0,0,2.278,12.373,23.521,23.521,0,0,0,28.541-5.252L189.391,42.89A23.588,23.588,0,0,0,187.388,9.634Z" transform="translate(-75.261 -0.011)" fill="#78a88a"/><path d="M56.673,142.437l-1.125-1a7.392,7.392,0,0,0-10.421.63l-11.95,13.486a7.3,7.3,0,0,1-10.289.623l-4.178-3.707a7.289,7.289,0,0,1-.62-10.288L44.23,112.7a7.306,7.306,0,0,1,8.672-1.7,8.409,8.409,0,0,0,9.979-1.969l.094-.106A7.866,7.866,0,0,0,60.8,96.766a23.468,23.468,0,0,0-28.737,5.145L5.92,131.393h0a23.583,23.583,0,0,0,2,33.252l4.177,3.7a23.586,23.586,0,0,0,33.256-2L57.3,152.859A7.379,7.379,0,0,0,56.673,142.437Z" transform="translate(-0.001 -54.226)" fill="#78a88a"/></g></svg>