<svg xmlns="http://www.w3.org/2000/svg" width="150" height="150" viewBox="0 0 150 150"><g fill="none" stroke="#78a88a" stroke-width="9"><circle cx="75" cy="75" r="75" stroke="none"/><circle cx="75" cy="75" r="70.5" fill="none"/></g><g transform="translate(32.008 46.231)"><path d="M96.984,157.153V108.985a4.84,4.84,0,0,0-4.966-4.685H15.966A4.84,4.84,0,0,0,11,108.985v48.168a4.84,4.84,0,0,0,4.966,4.685H92.018A4.829,4.829,0,0,0,96.984,157.153Zm-79.685-2V110.985c0-.158.263-.386.667-.386H90.018c.421,0,.667.246.667.386v44.168c0,.158-.263.386-.667.386H17.966C17.562,155.539,17.3,155.311,17.3,155.153Z" transform="translate(-11 -104.3)" fill="#78a88a"/><ellipse cx="3.454" cy="3.454" rx="3.454" ry="3.454" transform="translate(11.237 11.196)" fill="#78a88a"/><ellipse cx="3.454" cy="3.454" rx="3.454" ry="3.454" transform="translate(25.37 11.196)" fill="#78a88a"/><ellipse cx="3.454" cy="3.454" rx="3.454" ry="3.454" transform="translate(39.527 11.196)" fill="#78a88a"/><ellipse cx="3.454" cy="3.454" rx="3.454" ry="3.454" transform="translate(53.682 11.196)" fill="#78a88a"/><ellipse cx="3.454" cy="3.454" rx="3.454" ry="3.454" transform="translate(67.838 11.196)" fill="#78a88a"/><ellipse cx="3.454" cy="3.454" rx="3.454" ry="3.454" transform="translate(18.304 25.848)" fill="#78a88a"/><ellipse cx="3.454" cy="3.454" rx="3.454" ry="3.454" transform="translate(32.46 25.848)" fill="#78a88a"/><ellipse cx="3.454" cy="3.454" rx="3.454" ry="3.454" transform="translate(46.593 25.848)" fill="#78a88a"/><path d="M369.454,240.7h0a3.454,3.454,0,1,0,0,6.909h0a3.454,3.454,0,0,0,0-6.909Z" transform="translate(-305.251 -214.852)" fill="#78a88a"/><path d="M182.506,308.7H136.963c-1.417,0-2.563,1.451-2.563,3.245s1.146,3.245,2.563,3.245h45.543c1.417,0,2.563-1.451,2.563-3.245S183.923,308.7,182.506,308.7Z" transform="translate(-116.742 -269.723)" fill="#78a88a"/></g></svg>